<svg xmlns="http://www.w3.org/2000/svg" viewBox="0 0 1000 1000">
<!-- RANGE: the Typhoon planform traced from assets/library.json by tools/icon_planform.py. Raw trace, nose at the top. -->
<path fill="#FF8A1F" d="M 500.0 11.7 L 512.2 35.2 523.9 75.2 529.8 134.8 625.5 234.4 625.0 270.0 541.5 248.0 541.5 256.8 547.4 282.2 555.2 286.1 560.1 386.7 678.2 535.2 824.2 713.4 825.7 682.6 827.6 675.8 832.0 672.4 836.4 675.8 839.4 693.4 839.4 806.6 835.0 821.8 832.0 823.7 827.6 820.3 825.2 809.1 784.2 809.1 723.6 812.0 715.8 814.0 665.0 814.0 578.1 818.8 577.6 840.8 566.9 848.6 563.0 886.7 554.2 919.9 552.7 921.4 516.6 921.4 509.3 902.3 507.3 918.0 503.4 919.9 500.0 988.3 496.6 919.9 492.7 918.0 490.7 902.3 483.4 921.4 447.3 921.4 445.8 919.9 437.0 886.7 433.1 848.6 422.4 840.8 421.9 818.8 335.0 814.0 284.2 814.0 276.4 812.0 215.8 809.1 174.8 809.1 172.4 820.3 168.0 823.7 165.0 821.8 160.6 806.6 160.6 693.4 163.6 675.8 168.0 672.4 172.4 675.8 174.3 682.6 175.8 713.4 321.8 535.2 439.9 386.7 444.8 286.1 452.6 282.2 458.5 256.8 458.5 248.0 375.0 270.0 374.5 234.4 470.2 134.8 476.1 75.2 487.8 35.2 Z"/>
</svg>
